<?xml version="1.0" encoding="iso-8859-1"?>
<!-- Generator: Adobe Illustrator 17.1.0, SVG Export Plug-In . SVG Version: 6.00 Build 0)  -->
<!DOCTYPE svg PUBLIC "-//W3C//DTD SVG 1.1//EN" "http://www.w3.org/Graphics/SVG/1.1/DTD/svg11.dtd">
<svg version="1.1" id="Capa_1" xmlns="http://www.w3.org/2000/svg" xmlns:xlink="http://www.w3.org/1999/xlink" x="0px" y="0px"
	 viewBox="0 0 200.677 200.677" style="enable-background:new 0 0 200.677 200.677;" xml:space="preserve">
<path fill="#395b6b" d="M110.227,200.677H97.78c-5.976,0-10.838-4.862-10.838-10.837v-0.414c0-5.976,4.862-10.837,10.838-10.837h12.446
	c5.011,0,9.238,3.417,10.473,8.044h29.97c19.633,0,35.605-15.972,35.605-35.605v-13.248h-2.261v7.398
	c0,5.635-4.584,10.219-10.219,10.219h-8.486c-1.299,0-2.404-0.825-2.822-1.98h-3.527c-4.331,0-7.855-3.352-7.855-7.472V98.206
	c0-4.12,3.524-7.472,7.855-7.472h3.527c0.418-1.155,1.523-1.98,2.822-1.98h9.036c5.331,0,9.669,4.337,9.669,9.669v7.948h2.261v-9.51
	C186.274,46.76,147.724,6,100.338,6C52.953,6,14.402,46.76,14.402,96.861v9.51h2.261v-7.948c0-5.332,4.338-9.669,9.669-9.669h9.036
	c1.299,0,2.404,0.825,2.822,1.98h3.527c4.331,0,7.855,3.352,7.855,7.472v47.739c0,4.12-3.524,7.472-7.855,7.472H38.19
	c-0.418,1.155-1.523,1.98-2.822,1.98h-8.486c-5.635,0-10.219-4.584-10.219-10.219v-7.398h-5.261c-1.657,0-3-1.343-3-3V96.861
	C8.402,43.452,49.645,0,100.338,0c50.694,0,91.937,43.452,91.937,96.861v54.166c0,22.941-18.664,41.605-41.605,41.605h-29.97
	C119.465,197.259,115.237,200.677,110.227,200.677z M97.78,184.588c-2.668,0-4.838,2.17-4.838,4.837v0.414
	c0,2.667,2.17,4.837,4.838,4.837h12.446c2.668,0,4.838-2.17,4.838-4.837v-0.414c0-2.667-2.17-4.837-4.838-4.837H97.78z
	 M168.669,149.396h5.126c2.326,0,4.219-1.893,4.219-4.219V98.423c0-2.023-1.646-3.669-3.669-3.669h-5.676V149.396z M26.332,94.754
	c-2.023,0-3.669,1.646-3.669,3.669v46.754c0,2.327,1.893,4.219,4.219,4.219h5.486V94.754H26.332z M158.959,96.734
	c-1.006,0-1.855,0.674-1.855,1.472v47.739c0,0.798,0.85,1.472,1.855,1.472h3.71V96.734H158.959z M38.368,147.417h3.35
	c1.006,0,1.855-0.674,1.855-1.472V98.206c0-0.798-0.85-1.472-1.855-1.472h-3.35V147.417z M184.014,131.779h2.261v-19.408h-2.261
	V131.779z M14.402,131.779h2.261v-19.408h-2.261V131.779z"/>
</svg>
