<svg height="448pt" viewBox="0 -16 448 448" width="448pt" xmlns="http://www.w3.org/2000/svg"><path fill="#D7BA8F" d="m136 96c0 13.253906-10.746094 24-24 24s-24-10.746094-24-24 10.746094-24 24-24 24 10.746094 24 24zm0 0"/><path fill="#D7BA8F" d="m168 336h112v48h-112zm0 0"/><path fill="#D7BA8F" d="m40 184c.027344-22.082031 17.917969-39.972656 40-40h94.191406l50.199219-23.886719c7.222656-2.855469 15.394531-1.925781 21.785156 2.488281.207031.140626.351563.34375.542969.488282l83.464844-46.480469 7.785156 13.984375-82.5625 45.972656c2.628906 11.285156-3.671875 22.730469-14.605469 26.554688l-63.058593 28.878906h-9.742188v64h248v-224h-384v224h8zm224-40h16v16h-16zm136 80h-176v-16h176zm0-32h-176v-16h176zm0-32h-104v-16h104zm0-32h-64v-16h64zm0-32h-48v-16h48zm-112-48h112v16h-112zm-48 0h32v16h-32zm0 32h32v16h-32zm-128-24c22.089844 0 40 17.910156 40 40s-17.910156 40-40 40-40-17.910156-40-40c.027344-22.082031 17.917969-39.972656 40-40zm0 0"/><path fill="#D7BA8F" d="m448 312v-304c0-4.417969-3.582031-8-8-8h-432c-4.417969 0-8 3.582031-8 8v304c0 4.417969 3.582031 8 8 8h432c4.417969 0 8-3.582031 8-8zm-16-40h-416v-256h416zm0 0"/><path fill="#D7BA8F" d="m234.777344 148.328125c3.035156-.921875 5.140625-3.683594 5.222656-6.855469 0-2.296875-1.117188-4.449218-2.996094-5.769531s-4.285156-1.636719-6.445312-.855469l-52.75 25.152344h-97.808594c-13.253906 0-24 10.746094-24 24v72h96v-80h22.257812zm0 0"/><path fill="#D7BA8F" d="m88 400h272v16h-272zm0 0"/></svg>