<svg width="16" height="16" viewBox="0 0 16 16" fill="none" xmlns="http://www.w3.org/2000/svg">
<path d="M8.00114 6.66553C8.17795 6.66553 8.34752 6.73577 8.47254 6.86079C8.59757 6.98581 8.66781 7.15538 8.66781 7.33219V11.3322C8.66781 11.509 8.59757 11.6786 8.47254 11.8036C8.34752 11.9286 8.17795 11.9989 8.00114 11.9989C7.82433 11.9989 7.65476 11.9286 7.52973 11.8036C7.40471 11.6786 7.33447 11.509 7.33447 11.3322V7.33219C7.33447 7.15538 7.40471 6.98581 7.52973 6.86079C7.65476 6.73577 7.82433 6.66553 8.00114 6.66553Z" fill="#4B403F"/>
<path d="M8.00013 5.66553C8.13145 5.66553 8.26149 5.63966 8.38282 5.58941C8.50414 5.53915 8.61438 5.46549 8.70724 5.37263C8.8001 5.27978 8.87376 5.16954 8.92401 5.04821C8.97427 4.92689 9.00013 4.79685 9.00013 4.66553C9.00013 4.53421 8.97427 4.40417 8.92401 4.28284C8.87376 4.16152 8.8001 4.05128 8.70724 3.95842C8.61438 3.86556 8.50414 3.7919 8.38282 3.74165C8.26149 3.69139 8.13145 3.66553 8.00013 3.66553C7.73527 3.66553 7.48125 3.77074 7.29397 3.95803C7.10668 4.14532 7.00146 4.39933 7.00146 4.66419C7.00146 4.92906 7.10668 5.18307 7.29397 5.37036C7.48125 5.55764 7.73527 5.66286 8.00013 5.66286V5.66553Z" fill="#4B403F"/>
<path d="M0 8C-1.56548e-08 6.94943 0.206926 5.90914 0.608964 4.93853C1.011 3.96793 1.60028 3.08601 2.34315 2.34315C3.08601 1.60028 3.96793 1.011 4.93853 0.608964C5.90914 0.206926 6.94943 0 8 0C9.05058 0 10.0909 0.206926 11.0615 0.608964C12.0321 1.011 12.914 1.60028 13.6569 2.34315C14.3997 3.08601 14.989 3.96793 15.391 4.93853C15.7931 5.90914 16 6.94943 16 8C16 10.1217 15.1571 12.1566 13.6569 13.6569C12.1566 15.1571 10.1217 16 8 16C5.87827 16 3.84344 15.1571 2.34315 13.6569C0.842855 12.1566 3.16163e-08 10.1217 0 8ZM8 1.33333C6.23189 1.33333 4.5362 2.03571 3.28595 3.28595C2.03571 4.5362 1.33333 6.23189 1.33333 8C1.33333 9.76811 2.03571 11.4638 3.28595 12.714C4.5362 13.9643 6.23189 14.6667 8 14.6667C9.76811 14.6667 11.4638 13.9643 12.714 12.714C13.9643 11.4638 14.6667 9.76811 14.6667 8C14.6667 6.23189 13.9643 4.5362 12.714 3.28595C11.4638 2.03571 9.76811 1.33333 8 1.33333Z" fill="#4B403F"/>
</svg>
