<svg width="16" height="16" viewBox="0 0 16 16" fill="none" xmlns="http://www.w3.org/2000/svg">
<path d="M9.39467 5.52589H5.13383C4.9315 5.52589 4.73745 5.44551 4.59438 5.30243C4.45131 5.15935 4.37093 4.96529 4.37093 4.76295C4.37093 4.5606 4.45131 4.36654 4.59438 4.22346C4.73745 4.08038 4.9315 4 5.13383 4H11.2371C11.3374 3.9997 11.4367 4.01923 11.5294 4.05746C11.6221 4.0957 11.7063 4.15188 11.7772 4.22279C11.8481 4.2937 11.9043 4.37792 11.9425 4.47062C11.9808 4.56332 12.0003 4.66267 12 4.76295V10.8665C12 11.0688 11.9196 11.2629 11.7765 11.406C11.6335 11.5491 11.4394 11.6294 11.2371 11.6294C11.0348 11.6294 10.8407 11.5491 10.6976 11.406C10.5546 11.2629 10.4742 11.0688 10.4742 10.8665V6.60469L5.30244 11.7767C5.15928 11.9197 4.96517 12.0001 4.76279 12C4.56042 11.9999 4.36636 11.9195 4.2233 11.7763C4.08025 11.6331 3.99993 11.439 4 11.2366C4.00007 11.0342 4.08053 10.8402 4.22369 10.6971L9.39467 5.52589Z" fill="#4B403F"/>
</svg>
