<?xml version="1.0" encoding="utf-8"?>
<!-- Generator: Adobe Illustrator 19.2.1, SVG Export Plug-In . SVG Version: 6.00 Build 0)  -->
<svg version="1.1" id="Слой_1" xmlns="http://www.w3.org/2000/svg" xmlns:xlink="http://www.w3.org/1999/xlink" x="0px" y="0px"
	 viewBox="0 0 388.5 295.9" style="enable-background:new 0 0 388.5 295.9;" xml:space="preserve">
<style type="text/css">
	.st0{fill:#D7BA8F;}
	.st1{fill:#D7BA8F;}
</style>
<path class="st0" d="M14.5,77.2C2,73.5,3.2,74.5,3.4,61.4c0.1-4.3,0.5-6.9,4.6-8C69.8,37.2,131.5,20.7,193.3,4.5
	c2.5-0.7,5.4-0.6,7.8,0c56.7,14.8,113.4,29.7,170,44.6c14.5,3.8,13.3,2.8,13.5,18.1c0,3.4,0.2,5.9-3.2,7
	c-59.3,18.8-118.5,37.9-178,56.8c-2.6,0.8-5.9,0.8-8.6,0c-19.5-5.6-38.9-11.5-58.4-17.3c-27-8-53.9-16.2-80.9-24
	c-5.7-1.7-4-5.5-4.2-9c-0.3-4.4,8.3-5.1,11.2-5.2c28.1-1,80.1-7.4,111.3-10.5c2.1-0.2,4.6,0.4,6.6,1.3c10.1,4.5,20.4,4.8,30.5,0.4
	c2.8-1.2,6.3-4.8,6.3-7.3s-3.5-6.1-6.3-7.2c-11.7-4.5-23.3-4.9-34.1,3.1c-1.1,0.9-2.7,1.4-4.1,1.5c-30.5,3.1-61,6.2-91.5,9.3
	c-12.6,1.2-25.1,2.6-38.1,4c0,5.1,0,9.9,0,15.6C33,82.7,23.8,79.9,14.5,77.2z"/>
<path class="st1" d="M93.2,100.8c33.9,10.2,67.9,20.3,101.9,30.3c2.7,0.8,6,0.8,8.6,0c29.8-9.4,59.6-19,89.4-28.5
	c7.2-2.3,14.4-4.5,22.5-7.1c0,2.6,0,24.8-0.5,44.5c-6.9,4.3-57.2,37-114.7,37c-50.2,0-94.9-20.3-112.6-33.6c0-21.8,0-40.2,0-44
	C90,100,91.6,100.4,93.2,100.8z"/>
<path class="st1" d="M200.3,185.9c-50.2,0-94.4-20.3-112.4-33.6c0,5.3,0,22,0,28c18,13.3,62.1,33.6,112.4,33.6
	c57.5,0,107.6-32.7,114.6-37c0-8.6,0-21.8,0-28C307.9,153.2,257.8,185.9,200.3,185.9z"/>
<path class="st1" d="M200.3,223.9c-50.2,0-94.4-20.3-112.4-33.6c0,5.3,0,19,0,25c18,13.3,62.1,33.6,112.4,33.6
	c57.5,0,107.6-32.7,114.6-37c0-8.6,0-18.8,0-25C307.9,191.2,257.8,223.9,200.3,223.9z"/>
<path class="st1" d="M200.3,257.9c-50.2,0-94.4-20.3-112.4-33.6c0,5.3,0,10,0,16c18,13.3,62.1,33.6,112.4,33.6
	c57.5,0,107.6-32.7,114.6-37c0-8.6,0-9.8,0-16C307.9,225.2,257.8,257.9,200.3,257.9z"/>
<path class="st1" d="M200.3,281.9c-50.2,0-94.4-20.3-112.4-33.6c0,5.3,0,4,0,10c18,13.3,62.1,33.6,112.4,33.6
	c57.5,0,107.6-32.7,114.6-37c0-8.6,0-3.8,0-10C307.9,249.2,257.8,281.9,200.3,281.9z"/>
<path class="st0" d="M66.6,161c0.1,9.7,0.2,19.3-0.1,29c0,1.4-1.7,3.6-3,4c-10.6,3.1-21.3,3-32,0.2c-2.9-0.7-3.6-2.3-3.5-5
	c0.2-7.8,0.3-15.7,0-23.5c-0.4-7.2,1.1-13.3,8.1-16.6c-4.5-10.1-3.7-17.4,3.1-21.5c3.4-2.1,3.8-4.4,3.8-7.7c-0.1-9.7,0-19.5,0-29.3
	c8,1.3,8,1.3,8,8.1c0,7.7-0.1,15.3,0.1,23c0.1,1.3,0.8,3.3,1.9,4c9.7,6.7,11.3,12.4,5.8,22.9C65.3,153.8,66.7,155.8,66.6,161z"/>
</svg>
