<svg width="141" height="26" viewBox="0 0 141 26" fill="none" xmlns="http://www.w3.org/2000/svg">
<path d="M38.5507 5.92254V20.0775H42.4086V14.7958H45.0448L49.5458 20.0775H53.318V19.2324L48.024 13L53.318 6.76761V5.92254H49.5458L44.8734 11.4155H42.4086V5.92254H38.5507Z" fill="white"/>
<path d="M54.5157 13.5493C54.5157 17.3732 56.2518 20.5 62.4888 20.5H63.2603C69.4973 20.5 71.2334 17.3732 71.2334 13.5493V12.4507C71.2334 8.62676 69.4973 5.5 63.2603 5.5H62.4888C56.2518 5.5 54.5157 8.62676 54.5157 12.4507V13.5493ZM58.3736 13C58.3736 10.8662 58.3736 8.90141 62.8745 8.90141C67.3755 8.90141 67.3755 10.8662 67.3755 13C67.3755 15.1549 67.3755 17.1197 62.8745 17.1197C58.3736 17.1197 58.3736 15.1549 58.3736 13Z" fill="white"/>
<path d="M74.028 5.92254V20.0775H77.886V14.7958H85.3875V20.0775H89.2454V5.92254H85.3875V11.4155H77.886V5.92254H74.028Z" fill="white"/>
<path d="M92.0234 13.5493C92.0234 17.3732 93.7166 20.5 99.7821 20.5H100.554C102.483 20.5 104.326 20.2465 106.083 19.8239V16.3592C104.112 16.9296 101.904 17.162 100.447 17.162C95.967 17.162 95.967 15.4085 95.967 13C95.967 10.5915 95.967 8.85916 100.447 8.85916C101.904 8.85916 104.112 9.07042 106.083 9.64085V6.19718C104.326 5.75352 102.483 5.5 100.554 5.5H99.7821C93.7166 5.5 92.0234 8.62676 92.0234 12.4507V13.5493Z" fill="white"/>
<path d="M123.94 6.76761V5.92254H120.297L116.396 12.7465L111.959 5.92254H108.101V6.76761L114.553 16C114.231 16.7183 113.888 17.0563 112.645 17.0563C112.152 17.0563 111.338 16.993 110.781 16.8662V20.2887C111.359 20.4366 112.174 20.5 112.795 20.5C115.903 20.5 116.932 18.8099 118.218 16.3803L123.94 6.76761Z" fill="white"/>
<path d="M125.224 16.9507C124.903 16.9507 124.388 16.9296 124.046 16.8873V20.1197C124.56 20.2887 125.267 20.331 125.91 20.331C129.232 20.331 130.283 18.7465 130.454 15.7887L130.733 9.30282H136.348V20.0775H140.206V5.92254H127.132L126.703 15.3662C126.66 16.4014 126.36 16.9507 125.224 16.9507Z" fill="white"/>
<path opacity="0.4" d="M26.884 0.0154716C26.884 0.0154716 21.3226 8.12644 20.423 9.65813C19.5233 11.1898 17.8876 13 16.2519 13C17.8876 13 19.5233 14.8102 20.423 16.3419C21.3226 17.8736 26.884 25.9845 26.884 25.9845C23.3754 26.008 17.7995 25.9998 14.6571 25.992C13.0395 25.9879 11.9583 25.6487 11.092 24.418L3.28882 13L11.092 1.58196C11.9583 0.351318 13.0395 0.0120788 14.6571 0.00804638C17.7995 0.000212654 23.3754 -0.00804645 26.884 0.0154716Z" fill="white"/>
<path opacity="0.4" d="M23.412 0.0154714C23.412 0.0154714 17.8505 8.12644 16.9509 9.65813C16.0512 11.1898 14.4155 13 12.7798 13C14.4155 13 16.0512 14.8102 16.9509 16.3419C17.8505 17.8736 23.412 25.9845 23.412 25.9845C19.9033 26.008 17.7995 25.9998 14.6571 25.992C13.0395 25.9879 11.9583 25.6487 11.092 24.418L3.28882 13L11.092 1.58197C11.9583 0.351319 13.0395 0.012079 14.6571 0.00804656C17.7995 0.000212832 19.9033 -0.00804662 23.412 0.0154714Z" fill="white"/>
<path opacity="0.6" d="M19.9399 0.0154713C19.9399 0.0154713 14.3784 8.12644 13.4788 9.65813C12.5791 11.1898 10.9434 13 9.30771 13C10.9434 13 12.5791 14.8102 13.4788 16.3419C14.3784 17.8736 19.9399 25.9845 19.9399 25.9845C16.4313 26.008 17.7995 25.9998 14.6571 25.992C13.0395 25.9879 11.9583 25.6487 11.092 24.418L3.28882 13L11.092 1.58197C11.9583 0.351319 13.0395 0.0120791 14.6571 0.00804663C17.7995 0.000212906 16.4313 -0.00804669 19.9399 0.0154713Z" fill="white"/>
<path d="M0 0L0 13L0 26H8.78588L5.3138 20.6948L0.0550678 13L5.3138 5.30517L8.78588 0L0 0Z" fill="white"/>
</svg>
