<svg width="161" height="30" viewBox="0 0 161 30" fill="none" xmlns="http://www.w3.org/2000/svg">
<path d="M44.0578 6.83373V23.1663H48.4669V17.0721H51.4798L56.6237 23.1663H60.9348V22.1913L54.8845 15L60.9348 7.80881V6.83373H56.6237L51.2838 13.1718H48.4669V6.83373H44.0578Z" fill="#4B403F"/>
<path d="M62.3036 15.6338C62.3036 20.0461 64.2877 23.6539 71.4157 23.6539H72.2975C79.4255 23.6539 81.4095 20.0461 81.4095 15.6338V14.3662C81.4095 9.95399 79.4255 6.34619 72.2975 6.34619H71.4157C64.2877 6.34619 62.3036 9.95399 62.3036 14.3662V15.6338ZM66.7127 15C66.7127 12.538 66.7127 10.2709 71.8566 10.2709C77.0005 10.2709 77.0005 12.538 77.0005 15C77.0005 17.4865 77.0005 19.7536 71.8566 19.7536C66.7127 19.7536 66.7127 17.4865 66.7127 15Z" fill="#4B403F"/>
<path d="M84.6034 6.83373V23.1663H89.0125V17.0721H97.5857V23.1663H101.995V6.83373H97.5857V13.1718H89.0125V6.83373H84.6034Z" fill="#4B403F"/>
<path d="M105.169 15.6338C105.169 20.0461 107.105 23.6539 114.037 23.6539H114.918C117.123 23.6539 119.23 23.3614 121.238 22.8738V18.876C118.985 19.5342 116.462 19.8023 114.796 19.8023C109.677 19.8023 109.677 17.779 109.677 15C109.677 12.2211 109.677 10.2221 114.796 10.2221C116.462 10.2221 118.985 10.4659 121.238 11.1241V7.15063C119.23 6.63872 117.123 6.34619 114.918 6.34619H114.037C107.105 6.34619 105.169 9.95399 105.169 14.3662V15.6338Z" fill="#4B403F"/>
<path d="M141.646 7.80881V6.83373H137.482L133.024 14.7075L127.953 6.83373H123.544V7.80881L130.917 18.4616C130.55 19.2904 130.158 19.6804 128.737 19.6804C128.174 19.6804 127.243 19.6073 126.606 19.461V23.4101C127.268 23.5808 128.198 23.6539 128.909 23.6539C132.461 23.6539 133.636 21.7037 135.106 18.9004L141.646 7.80881Z" fill="#4B403F"/>
<path d="M143.113 19.5585C142.746 19.5585 142.158 19.5342 141.766 19.4854V23.2151C142.354 23.4101 143.162 23.4589 143.897 23.4589C147.694 23.4589 148.894 21.6306 149.09 18.2178L149.409 10.7341H155.826V23.1663H160.235V6.83373H145.294L144.804 17.7303C144.755 18.9247 144.412 19.5585 143.113 19.5585Z" fill="#4B403F"/>
<path opacity="0.4" d="M30.7246 0.0178518C30.7246 0.0178518 24.3687 9.37666 23.3405 11.144C22.3123 12.9113 20.443 15 18.5736 15C20.443 15 22.3123 17.0887 23.3405 18.856C24.3687 20.6233 30.7246 29.9821 30.7246 29.9821C26.7148 30.0093 20.3422 29.9998 16.7509 29.9907C14.9022 29.9861 13.6666 29.5946 12.6766 28.1747L3.75864 15L12.6766 1.82534C13.6666 0.405367 14.9022 0.0139371 16.7509 0.00928428C20.3422 0.00024537 26.7148 -0.00928437 30.7246 0.0178518Z" fill="#4B403F"/>
<path opacity="0.4" d="M26.7565 0.0178516C26.7565 0.0178516 20.4006 9.37666 19.3724 11.144C18.3442 12.9113 16.4749 15 14.6055 15C16.4749 15 18.3442 17.0887 19.3724 18.856C20.4006 20.6233 26.7565 29.9821 26.7565 29.9821C22.7467 30.0093 20.3422 29.9998 16.7509 29.9907C14.9022 29.9861 13.6666 29.5946 12.6766 28.1747L3.75864 15L12.6766 1.82534C13.6666 0.405368 14.9022 0.0139373 16.7509 0.00928449C20.3422 0.000245576 22.7467 -0.00928457 26.7565 0.0178516Z" fill="#4B403F"/>
<path opacity="0.6" d="M22.7884 0.0178515C22.7884 0.0178515 16.4325 9.37666 15.4043 11.144C14.3762 12.9113 12.5068 15 10.6374 15C12.5068 15 14.3762 17.0887 15.4043 18.856C16.4325 20.6233 22.7884 29.9821 22.7884 29.9821C18.7786 30.0093 20.3422 29.9998 16.7509 29.9907C14.9022 29.9861 13.6666 29.5946 12.6766 28.1747L3.75864 15L12.6766 1.82534C13.6666 0.405368 14.9022 0.0139374 16.7509 0.00928457C20.3422 0.00024566 18.7786 -0.00928465 22.7884 0.0178515Z" fill="#4B403F"/>
<path d="M0 0L0 15L0 30H10.041L6.07291 23.8787L0.0629346 15L6.07291 6.12134L10.041 0L0 0Z" fill="#4B403F"/>
</svg>
